<svg width="21" height="20" viewBox="0 0 21 20" fill="none" xmlns="http://www.w3.org/2000/svg">
<path fill-rule="evenodd" clip-rule="evenodd" d="M12.4986 0.813501C12.8998 0.813501 13.2254 1.13809 13.2254 1.53803C13.2254 1.93797 12.8998 2.26256 12.4986 2.26256H5.45512C3.02459 2.26256 1.45366 3.92801 1.45366 6.50733V14.3149C1.45366 16.928 2.9868 18.5509 5.45512 18.5509H13.7933C16.2239 18.5509 17.7948 16.8884 17.7948 14.3149V7.51491C17.7948 7.11497 18.1204 6.79038 18.5216 6.79038C18.9228 6.79038 19.2484 7.11497 19.2484 7.51491V14.3149C19.2484 17.7153 17.0563 20 13.7933 20H5.45512C2.19213 20 0 17.7153 0 14.3149V6.50733C0 3.10205 2.19213 0.813501 5.45512 0.813501H12.4986ZM14.5487 7.41135C14.8665 7.65673 14.9247 8.11173 14.6785 8.42763L11.839 12.0793C11.7208 12.2319 11.5464 12.3314 11.3545 12.3546C11.1607 12.3807 10.9688 12.3246 10.8156 12.2058L8.0847 10.067L5.63188 13.2443C5.48845 13.4298 5.27331 13.5273 5.05526 13.5273C4.9002 13.5273 4.74418 13.4781 4.61238 13.3776C4.29451 13.1332 4.23443 12.6782 4.47961 12.3613L7.38016 8.60345C7.49839 8.44985 7.6738 8.35034 7.86568 8.32619C8.06144 8.30108 8.25332 8.35517 8.40547 8.47593L11.1384 10.6157L13.5292 7.5408C13.7753 7.22298 14.2308 7.16405 14.5487 7.41135ZM17.4124 0C18.8408 0 20.0018 1.15731 20.0018 2.58126C20.0018 4.0052 18.8408 5.16348 17.4124 5.16348C15.9849 5.16348 14.8229 4.0052 14.8229 2.58126C14.8229 1.15731 15.9849 0 17.4124 0ZM17.4124 1.44906C16.7863 1.44906 16.2766 1.95623 16.2766 2.58126C16.2766 3.20532 16.7863 3.71442 17.4124 3.71442C18.0384 3.71442 18.5482 3.20532 18.5482 2.58126C18.5482 1.95623 18.0384 1.44906 17.4124 1.44906Z" fill="black"/>
</svg>
