<svg width="22" height="20" viewBox="0 0 22 20" fill="none" xmlns="http://www.w3.org/2000/svg">
<path fill-rule="evenodd" clip-rule="evenodd" d="M10.5402 1.62158C10.4418 1.62158 10.1997 1.64861 10.071 1.9059L8.09701 5.85283C7.78458 6.4766 7.18244 6.9101 6.48624 7.00956L2.06689 7.6463C1.775 7.68846 1.67554 7.90467 1.64527 7.99548C1.61825 8.08305 1.57501 8.30574 1.77608 8.49817L4.97168 11.5684C5.48086 12.0581 5.7122 12.764 5.59112 13.4548L4.83871 17.7898C4.79222 18.0612 4.96195 18.219 5.03762 18.2731C5.11762 18.3336 5.33167 18.4536 5.59653 18.3152L9.54778 16.2666C10.1705 15.9456 10.9121 15.9456 11.5326 16.2666L15.4828 18.3141C15.7487 18.4514 15.9628 18.3314 16.0438 18.2731C16.1195 18.219 16.2892 18.0612 16.2428 17.7898L15.4882 13.4548C15.3671 12.764 15.5984 12.0581 16.1076 11.5684L19.3032 8.49817C19.5054 8.30574 19.4621 8.08196 19.434 7.99548C19.4048 7.90467 19.3054 7.68846 19.0135 7.6463L14.5941 7.00956C13.899 6.9101 13.2969 6.4766 12.9845 5.85175L11.0083 1.9059C10.8807 1.64861 10.6386 1.62158 10.5402 1.62158ZM5.34789 19.9995C4.90141 19.9995 4.45818 19.859 4.07873 19.5822C3.42361 19.1022 3.10254 18.3098 3.24199 17.512L3.99441 13.177C4.02251 13.0159 3.96738 12.8527 3.84846 12.7381L0.652866 9.66787C0.0647726 9.10464 -0.146033 8.27223 0.102609 7.49928C0.353414 6.71767 1.01718 6.15877 1.83554 6.04201L6.25489 5.40527C6.4257 5.38149 6.57272 5.27663 6.64623 5.12744L8.62132 1.17943C8.98564 0.451881 9.72075 0 10.5402 0C11.3596 0 12.0947 0.451881 12.4591 1.17943L14.4352 5.12636C14.5098 5.27663 14.6558 5.38149 14.8255 5.40527L19.2448 6.04201C20.0632 6.15877 20.727 6.71767 20.9778 7.49928C21.2264 8.27223 21.0145 9.10464 20.4264 9.66787L17.2308 12.7381C17.1119 12.8527 17.0579 13.0159 17.086 13.1759L17.8395 17.512C17.9778 18.3109 17.6568 19.1033 17.0006 19.5822C16.3357 20.0698 15.4698 20.1357 14.7358 19.753L10.7867 17.7066C10.6321 17.6266 10.4472 17.6266 10.2926 17.7066L6.34354 19.7541C6.02787 19.9184 5.68734 19.9995 5.34789 19.9995Z" fill="black"/>
</svg>
