<svg width="25" height="20" viewBox="0 0 25 20" fill="none" xmlns="http://www.w3.org/2000/svg">
<path fill-rule="evenodd" clip-rule="evenodd" d="M12.4219 0C17.5582 0.00372555 22.1704 3.60385 24.7609 9.63179C24.8628 9.8665 24.8628 10.1323 24.7609 10.367C22.1717 16.3962 17.5582 19.9963 12.4219 20H12.4145C7.27817 19.9963 2.66594 16.3962 0.0754424 10.367C-0.0251475 10.1323 -0.0251475 9.8665 0.0754424 9.63179C2.66594 3.60385 7.27942 0.00372555 12.4145 0H12.4219ZM12.4182 1.86278C8.1512 1.86402 4.25924 4.89786 1.94939 9.99938C4.25924 15.1021 8.14995 18.136 12.4182 18.1372C16.6864 18.136 20.5771 15.1021 22.887 9.99938C20.5771 4.89786 16.6864 1.86402 12.4182 1.86278ZM12.4178 5.14225C15.0965 5.14225 17.2759 7.3217 17.2759 10.0004C17.2759 12.6778 15.0965 14.856 12.4178 14.856C9.73915 14.856 7.56094 12.6778 7.56094 10.0004C7.56094 7.3217 9.73915 5.14225 12.4178 5.14225ZM12.4178 7.00503C10.7662 7.00503 9.42372 8.34871 9.42372 10.0004C9.42372 11.6508 10.7662 12.9932 12.4178 12.9932C14.0695 12.9932 15.4132 11.6508 15.4132 10.0004C15.4132 8.34871 14.0695 7.00503 12.4178 7.00503Z" fill="black"/>
</svg>
