<svg width="16" height="16" viewBox="0 0 16 16" fill="none" xmlns="http://www.w3.org/2000/svg">
<path fill-rule="evenodd" clip-rule="evenodd" d="M8.00008 1.29727C7.92541 1.29727 7.74161 1.31889 7.64397 1.52472L6.14568 4.68226C5.90855 5.18128 5.45152 5.52808 4.9231 5.60765L1.56878 6.11704C1.34724 6.15077 1.27175 6.32374 1.24877 6.39638C1.22826 6.46644 1.19544 6.64459 1.34806 6.79854L3.77354 9.25469C4.16001 9.64647 4.3356 10.2112 4.2437 10.7638L3.67261 14.2319C3.63733 14.4489 3.76615 14.5752 3.82359 14.6185C3.88431 14.6669 4.04677 14.7629 4.2478 14.6522L7.24683 13.0133C7.71946 12.7564 8.28234 12.7564 8.75332 13.0133L11.7515 14.6513C11.9534 14.7612 12.1158 14.6652 12.1774 14.6185C12.2348 14.5752 12.3636 14.4489 12.3284 14.2319L11.7556 10.7638C11.6637 10.2112 11.8393 9.64647 12.2258 9.25469L14.6513 6.79854C14.8047 6.64459 14.7719 6.46557 14.7506 6.39638C14.7284 6.32374 14.6529 6.15077 14.4314 6.11704L11.0771 5.60765C10.5495 5.52808 10.0924 5.18128 9.85529 4.6814L8.35536 1.52472C8.25854 1.31889 8.07474 1.29727 8.00008 1.29727ZM4.05908 15.9996C3.7202 15.9996 3.38379 15.8872 3.09578 15.6658C2.59854 15.2818 2.35485 14.6479 2.46069 14.0096L3.03178 10.5416C3.05311 10.4127 3.01127 10.2821 2.92101 10.1905L0.49553 7.7343C0.0491629 7.28371 -0.11084 6.61778 0.0778813 5.99942C0.268244 5.37414 0.772048 4.92701 1.39319 4.83361L4.7475 4.32422C4.87715 4.30519 4.98874 4.2213 5.04454 4.10195L6.54364 0.943545C6.82016 0.361505 7.37812 0 8.00008 0C8.62204 0 9.18 0.361505 9.45651 0.943545L10.9564 4.10109C11.0131 4.2213 11.1238 4.30519 11.2526 4.32422L14.607 4.83361C15.2281 4.92701 15.7319 5.37414 15.9223 5.99942C16.111 6.61778 15.9502 7.28371 15.5038 7.7343L13.0783 10.1905C12.9881 10.2821 12.947 10.4127 12.9684 10.5407L13.5403 14.0096C13.6453 14.6487 13.4016 15.2827 12.9036 15.6658C12.3989 16.0558 11.7417 16.1086 11.1845 15.8024L8.18716 14.1653C8.06982 14.1013 7.92951 14.1013 7.81218 14.1653L4.81479 15.8033C4.57519 15.9347 4.31673 15.9996 4.05908 15.9996Z" fill="#84B9E2"/>
</svg>
