<svg width="23" height="20" viewBox="0 0 23 20" fill="none" xmlns="http://www.w3.org/2000/svg">
<path d="M11.5536 5.09565C8.38443 5.09565 5.82817 7.21563 5.82817 9.84391C5.82817 12.4722 8.38443 14.5922 11.5536 14.5922C14.7228 14.5922 17.279 12.4722 17.279 9.84391C17.279 7.21563 14.7228 5.09565 11.5536 5.09565ZM11.5536 12.9309C9.5056 12.9309 7.83132 11.5465 7.83132 9.84391C7.83132 8.14131 9.50062 6.75692 11.5536 6.75692C13.6066 6.75692 15.2759 8.14131 15.2759 9.84391C15.2759 11.5465 13.6016 12.9309 11.5536 12.9309ZM18.8487 4.90143C18.8487 5.51717 18.2507 6.00894 17.5132 6.00894C16.7708 6.00894 16.1778 5.51304 16.1778 4.90143C16.1778 4.28981 16.7758 3.79391 17.5132 3.79391C18.2507 3.79391 18.8487 4.28981 18.8487 4.90143ZM22.6407 6.02547C22.556 4.5419 22.1474 3.22776 20.8369 2.14504C19.5313 1.06232 17.9468 0.723457 16.1579 0.649071C14.3142 0.562289 8.78805 0.562289 6.94435 0.649071C5.16045 0.719324 3.57586 1.05819 2.26534 2.14091C0.954822 3.22363 0.551201 4.53776 0.461508 6.02134C0.356866 7.55036 0.356866 12.1333 0.461508 13.6623C0.546218 15.1459 0.954822 16.4601 2.26534 17.5428C3.57586 18.6255 5.15547 18.9644 6.94435 19.0387C8.78805 19.1255 14.3142 19.1255 16.1579 19.0387C17.9468 18.9685 19.5313 18.6296 20.8369 17.5428C22.1424 16.4601 22.551 15.1459 22.6407 13.6623C22.7453 12.1333 22.7453 7.5545 22.6407 6.02547ZM20.2588 15.303C19.8702 16.1129 19.1177 16.7369 18.1361 17.0634C16.6661 17.5469 13.178 17.4353 11.5536 17.4353C9.92915 17.4353 6.43609 17.5428 4.9711 17.0634C3.99443 16.7411 3.24201 16.1171 2.84835 15.303C2.26534 14.0839 2.39988 11.1911 2.39988 9.84391C2.39988 8.49671 2.27033 5.59982 2.84835 4.38486C3.23702 3.57489 3.98945 2.95088 4.9711 2.62441C6.44107 2.14091 9.92915 2.25249 11.5536 2.25249C13.178 2.25249 16.6711 2.14504 18.1361 2.62441C19.1128 2.94675 19.8652 3.57076 20.2588 4.38486C20.8419 5.60395 20.7073 8.49671 20.7073 9.84391C20.7073 11.1911 20.8419 14.088 20.2588 15.303Z" fill="black"/>
</svg>
