<svg width="24" height="21" viewBox="0 0 24 21" fill="none" xmlns="http://www.w3.org/2000/svg">
<path d="M15.6153 9.83834C15.6153 10.4598 15.041 10.9692 14.3134 10.9692C13.5987 10.9692 13.0116 10.4598 13.0116 9.83834C13.0116 9.21689 13.5859 8.7075 14.3134 8.7075C15.041 8.7075 15.6153 9.21689 15.6153 9.83834ZM9.65476 8.7075C8.92723 8.7075 8.35288 9.21689 8.35288 9.83834C8.35288 10.4598 8.94 10.9692 9.65476 10.9692C10.3823 10.9692 10.9566 10.4598 10.9566 9.83834C10.9694 9.21689 10.3823 8.7075 9.65476 8.7075ZM23.133 2.2586V20.5356C19.9175 18.2674 20.9459 19.0182 17.2108 16.2465L17.8872 18.1312H3.4134C1.97112 18.1312 0.796875 17.194 0.796875 16.0325V2.2586C0.796875 1.09719 1.97112 0.159912 3.4134 0.159912H20.5165C21.9588 0.159912 23.133 1.09719 23.133 2.2586ZM19.4954 11.9167C19.4954 8.63618 17.6575 5.97716 17.6575 5.97716C15.8195 4.87687 14.0709 4.90744 14.0709 4.90744L13.8922 5.07044C16.062 5.60021 17.0704 6.3643 17.0704 6.3643C14.0385 5.03793 10.477 5.03769 7.53601 6.06885C7.06376 6.24204 6.78296 6.3643 6.78296 6.3643C6.78296 6.3643 7.84234 5.55946 10.1398 5.02969L10.0121 4.90744C10.0121 4.90744 8.26353 4.87687 6.42559 5.97716C6.42559 5.97716 4.58764 8.63618 4.58764 11.9167C4.58764 11.9167 5.65977 13.3939 8.48051 13.4652C8.48051 13.4652 8.95276 13.0068 9.33567 12.6196C7.7147 12.2325 7.10205 11.4175 7.10205 11.4175C7.28982 11.5224 7.59943 11.6583 7.62536 11.6722C9.7797 12.6351 12.8399 12.9506 15.5898 12.0287C16.0365 11.8963 16.5343 11.7027 17.0576 11.4276C17.0576 11.4276 16.4194 12.263 14.7474 12.64C15.1303 13.0271 15.5898 13.4652 15.5898 13.4652C18.4105 13.3939 19.4954 11.9167 19.4954 11.9167Z" fill="black"/>
</svg>
