<svg width="18" height="12" viewBox="0 0 18 12" fill="none" xmlns="http://www.w3.org/2000/svg">
<path d="M17.4897 7.73305V1.10472C17.4897 0.811731 17.3054 0.530741 16.9775 0.323565C16.6495 0.11639 16.2046 0 15.7407 0H5.24692C4.78306 0 4.33821 0.11639 4.01021 0.323565C3.68221 0.530741 3.49795 0.811731 3.49795 1.10472V7.73305C3.49795 8.02604 3.68221 8.30703 4.01021 8.5142C4.33821 8.72138 4.78306 8.83777 5.24692 8.83777H15.7407C16.2046 8.83777 16.6495 8.72138 16.9775 8.5142C17.3054 8.30703 17.4897 8.02604 17.4897 7.73305ZM7.87038 5.52361L9.64558 7.0205L12.2428 4.97124L15.7407 7.73305H5.24692M7.62939e-06 2.20944V9.94249C7.62939e-06 10.2355 0.184274 10.5165 0.512269 10.7236C0.840265 10.9308 1.28512 11.0472 1.74898 11.0472H13.9918V9.94249H1.74898V2.20944" fill="white"/>
</svg>
