<svg width="23" height="21" viewBox="0 0 23 21" fill="none" xmlns="http://www.w3.org/2000/svg">
<path d="M11.5539 5.12392C8.3847 5.12392 5.82844 7.45633 5.82844 10.348C5.82844 13.2396 8.3847 15.572 11.5539 15.572C14.723 15.572 17.2793 13.2396 17.2793 10.348C17.2793 7.45633 14.723 5.12392 11.5539 5.12392ZM11.5539 13.7443C9.50587 13.7443 7.83159 12.2212 7.83159 10.348C7.83159 8.47478 9.50089 6.95166 11.5539 6.95166C13.6069 6.95166 15.2761 8.47478 15.2761 10.348C15.2761 12.2212 13.6019 13.7443 11.5539 13.7443ZM18.8489 4.91023C18.8489 5.58768 18.251 6.12872 17.5135 6.12872C16.771 6.12872 16.1781 5.58313 16.1781 4.91023C16.1781 4.23733 16.776 3.69174 17.5135 3.69174C18.251 3.69174 18.8489 4.23733 18.8489 4.91023ZM22.641 6.14691C22.5563 4.51468 22.1477 3.06885 20.8371 1.87764C19.5316 0.686427 17.947 0.313604 16.1581 0.231765C14.3144 0.136287 8.78832 0.136287 6.94462 0.231765C5.16072 0.309058 3.57614 0.68188 2.26562 1.87309C0.955096 3.06431 0.551476 4.51013 0.461783 6.14236C0.35714 7.82461 0.35714 12.8668 0.461783 14.5491C0.546493 16.1813 0.955096 17.6271 2.26562 18.8183C3.57614 20.0095 5.15574 20.3824 6.94462 20.4642C8.78832 20.5597 14.3144 20.5597 16.1581 20.4642C17.947 20.3869 19.5316 20.0141 20.8371 18.8183C22.1427 17.6271 22.5513 16.1813 22.641 14.5491C22.7456 12.8668 22.7456 7.82916 22.641 6.14691ZM20.2591 16.3541C19.8704 17.2452 19.118 17.9317 18.1364 18.2909C16.6664 18.8229 13.1783 18.7001 11.5539 18.7001C9.92942 18.7001 6.43636 18.8183 4.97137 18.2909C3.99471 17.9363 3.24228 17.2497 2.84862 16.3541C2.26562 15.0128 2.40016 11.8302 2.40016 10.348C2.40016 8.86578 2.2706 5.67861 2.84862 4.3419C3.2373 3.45077 3.98972 2.76423 4.97137 2.40505C6.44134 1.87309 9.92942 1.99585 11.5539 1.99585C13.1783 1.99585 16.6714 1.87764 18.1364 2.40505C19.113 2.75968 19.8655 3.44622 20.2591 4.3419C20.8421 5.68316 20.7076 8.86578 20.7076 10.348C20.7076 11.8302 20.8421 15.0174 20.2591 16.3541Z" fill="black"/>
</svg>
