<svg width="23" height="21" viewBox="0 0 23 21" fill="none" xmlns="http://www.w3.org/2000/svg">
<path d="M11.5534 5.12368C8.38422 5.12368 5.82795 7.45609 5.82795 10.3477C5.82795 13.2394 8.38422 15.5718 11.5534 15.5718C14.7226 15.5718 17.2788 13.2394 17.2788 10.3477C17.2788 7.45609 14.7226 5.12368 11.5534 5.12368ZM11.5534 13.7441C9.50538 13.7441 7.83111 12.2209 7.83111 10.3477C7.83111 8.47453 9.5004 6.95142 11.5534 6.95142C13.6064 6.95142 15.2757 8.47453 15.2757 10.3477C15.2757 12.2209 13.6014 13.7441 11.5534 13.7441ZM18.8485 4.90999C18.8485 5.58743 18.2505 6.12848 17.513 6.12848C16.7706 6.12848 16.1776 5.58289 16.1776 4.90999C16.1776 4.23709 16.7755 3.69149 17.513 3.69149C18.2505 3.69149 18.8485 4.23709 18.8485 4.90999ZM22.6405 6.14667C22.5558 4.51443 22.1472 3.06861 20.8367 1.8774C19.5311 0.686182 17.9465 0.31336 16.1576 0.231521C14.314 0.136042 8.78784 0.136042 6.94414 0.231521C5.16023 0.308814 3.57565 0.681636 2.26513 1.87285C0.954608 3.06406 0.550988 4.50988 0.461294 6.14212C0.356652 7.82437 0.356652 12.8666 0.461294 14.5488C0.546005 16.181 0.954608 17.6269 2.26513 18.8181C3.57565 20.0093 5.15525 20.3821 6.94414 20.464C8.78784 20.5594 14.314 20.5594 16.1576 20.464C17.9465 20.3867 19.5311 20.0138 20.8367 18.8181C22.1422 17.6269 22.5508 16.181 22.6405 14.5488C22.7451 12.8666 22.7451 7.82891 22.6405 6.14667ZM20.2586 16.3538C19.87 17.2449 19.1175 17.9315 18.1359 18.2907C16.6659 18.8226 13.1778 18.6999 11.5534 18.6999C9.92894 18.6999 6.43587 18.8181 4.97088 18.2907C3.99422 17.936 3.24179 17.2495 2.84814 16.3538C2.26513 15.0126 2.39967 11.8299 2.39967 10.3477C2.39967 8.86554 2.27011 5.67836 2.84814 4.34166C3.23681 3.45052 3.98924 2.76398 4.97088 2.4048C6.44086 1.87285 9.92894 1.99561 11.5534 1.99561C13.1778 1.99561 16.6709 1.8774 18.1359 2.4048C19.1126 2.75944 19.865 3.44598 20.2586 4.34166C20.8416 5.68291 20.7071 8.86554 20.7071 10.3477C20.7071 11.8299 20.8416 15.0171 20.2586 16.3538Z" fill="black"/>
</svg>
