<svg width="19" height="18" viewBox="0 0 19 18" fill="none" xmlns="http://www.w3.org/2000/svg">
<path d="M17.5316 16.8428C17.7687 16.6042 17.7687 16.2191 17.5316 15.9806L15.5531 13.9902C14.3063 12.736 14.325 10.7334 14.7305 9.0121C14.8848 8.35703 14.9423 7.67689 14.8959 6.99348C14.7782 5.25822 13.9999 3.63542 12.7231 2.46268C11.4462 1.28994 9.76911 0.657548 8.04057 0.697058C6.31203 0.736568 4.66518 1.44494 3.44261 2.67481C2.22003 3.90468 1.51586 5.56136 1.47659 7.30021C1.43731 9.03906 2.06596 10.7262 3.23174 12.0107C4.39752 13.2951 6.01069 14.078 7.73566 14.1965C8.41142 14.2429 9.08395 14.1859 9.73195 14.0325C11.4474 13.6264 13.448 13.6072 14.6908 14.8575L16.6643 16.8428C16.9034 17.0833 17.2925 17.0833 17.5316 16.8428ZM2.71618 7.46463C2.71618 6.37276 3.03803 5.30541 3.64104 4.39756C4.24406 3.4897 5.10114 2.78211 6.10391 2.36427C7.10668 1.94643 8.2101 1.83711 9.27463 2.05012C10.3392 2.26313 11.317 2.78892 12.0845 3.56099C12.852 4.33305 13.3747 5.31673 13.5864 6.38762C13.7981 7.45851 13.6895 8.56851 13.2741 9.57727C12.8587 10.586 12.1554 11.4482 11.2529 12.0548C10.3504 12.6614 9.2894 12.9852 8.20401 12.9852C6.74904 12.9836 5.35413 12.4014 4.32531 11.3665C3.29649 10.3315 2.71779 8.92828 2.71618 7.46463Z" fill="#979797" stroke="#979797"/>
</svg>
