<svg width="24" height="20" viewBox="0 0 24 20" fill="none" xmlns="http://www.w3.org/2000/svg">
<path d="M15.6148 9.38091C15.6148 9.94577 15.0404 10.4088 14.3129 10.4088C13.5982 10.4088 13.011 9.94577 13.011 9.38091C13.011 8.81606 13.5854 8.35306 14.3129 8.35306C15.0404 8.35306 15.6148 8.81606 15.6148 9.38091ZM9.65424 8.35306C8.92672 8.35306 8.35236 8.81606 8.35236 9.38091C8.35236 9.94577 8.93948 10.4088 9.65424 10.4088C10.3818 10.4088 10.9561 9.94577 10.9561 9.38091C10.9689 8.81606 10.3818 8.35306 9.65424 8.35306ZM23.1325 2.49153V19.1038C19.917 17.0423 20.9454 17.7247 17.2102 15.2054L17.8867 16.9185H3.41288C1.9706 16.9185 0.796356 16.0666 0.796356 15.0109V2.49153C0.796356 1.4359 1.9706 0.583984 3.41288 0.583984H20.516C21.9583 0.583984 23.1325 1.4359 23.1325 2.49153ZM19.4949 11.2699C19.4949 8.28824 17.657 5.8714 17.657 5.8714C15.819 4.87133 14.0704 4.89911 14.0704 4.89911L13.8917 5.04727C16.0615 5.52878 17.0698 6.22328 17.0698 6.22328C14.038 5.01772 10.4765 5.0175 7.5355 5.95474C7.06325 6.11216 6.78245 6.22328 6.78245 6.22328C6.78245 6.22328 7.84182 5.49174 10.1393 5.01023L10.0116 4.89911C10.0116 4.89911 8.26302 4.87133 6.42507 5.8714C6.42507 5.8714 4.58712 8.28824 4.58712 11.2699C4.58712 11.2699 5.65926 12.6126 8.48 12.6774C8.48 12.6774 8.95225 12.2607 9.33515 11.9089C7.71419 11.557 7.10154 10.8162 7.10154 10.8162C7.2893 10.9115 7.59891 11.0351 7.62484 11.0477C9.77918 11.923 12.8393 12.2097 15.5893 11.3718C16.036 11.2514 16.5338 11.0755 17.0571 10.8255C17.0571 10.8255 16.4189 11.5848 14.7469 11.9274C15.1298 12.2793 15.5893 12.6774 15.5893 12.6774C18.41 12.6126 19.4949 11.2699 19.4949 11.2699Z" fill="black"/>
</svg>
