<svg width="28" height="17" viewBox="0 0 28 17" fill="none" xmlns="http://www.w3.org/2000/svg">
<path d="M26.4682 2.66189C26.1646 1.61911 25.2702 0.797847 24.1344 0.51914C22.0759 0.0126953 13.8212 0.0126953 13.8212 0.0126953C13.8212 0.0126953 5.56658 0.0126953 3.50795 0.51914C2.37223 0.797891 1.47775 1.61911 1.17416 2.66189C0.622559 4.552 0.622559 8.49553 0.622559 8.49553C0.622559 8.49553 0.622559 12.4391 1.17416 14.3292C1.47775 15.3719 2.37223 16.159 3.50795 16.4377C5.56658 16.9441 13.8212 16.9441 13.8212 16.9441C13.8212 16.9441 22.0758 16.9441 24.1344 16.4377C25.2702 16.159 26.1646 15.3719 26.4682 14.3292C27.0198 12.4391 27.0198 8.49553 27.0198 8.49553C27.0198 8.49553 27.0198 4.552 26.4682 2.66189ZM11.1215 12.076V4.9151L18.0207 8.49562L11.1215 12.076Z" fill="black"/>
</svg>
