<svg width="17" height="13" viewBox="0 0 17 13" fill="none" xmlns="http://www.w3.org/2000/svg">
<path d="M11.7066 7.25652C11.7705 6.85742 11.8185 6.45831 11.8185 6.0471C11.8185 5.6359 11.7705 5.23679 11.7066 4.83768H14.4085C14.5364 5.2247 14.6163 5.62985 14.6163 6.0471C14.6163 6.46435 14.5364 6.86951 14.4085 7.25652M10.2917 10.6187C10.7713 9.94748 11.139 9.22183 11.3948 8.46594H13.753C12.9856 9.46372 11.7625 10.2377 10.2917 10.6187ZM10.0919 7.25652H6.35077C6.27083 6.85742 6.22287 6.45831 6.22287 6.0471C6.22287 5.6359 6.27083 5.23074 6.35077 4.83768H10.0919C10.1638 5.23074 10.2198 5.6359 10.2198 6.0471C10.2198 6.45831 10.1638 6.85742 10.0919 7.25652ZM8.22131 10.8606C7.55783 10.1349 7.02224 9.33068 6.6945 8.46594H9.74812C9.42037 9.33068 8.88479 10.1349 8.22131 10.8606ZM5.0238 3.62826H2.68962C3.44903 2.62444 4.68007 1.85041 6.14293 1.47549C5.6633 2.14672 5.30358 2.87237 5.0238 3.62826ZM2.68962 8.46594H5.0238C5.30358 9.22183 5.6633 9.94748 6.14293 10.6187C4.68007 10.2377 3.44903 9.46372 2.68962 8.46594ZM2.03413 7.25652C1.90623 6.86951 1.82629 6.46435 1.82629 6.0471C1.82629 5.62985 1.90623 5.2247 2.03413 4.83768H4.73602C4.67207 5.23679 4.62411 5.6359 4.62411 6.0471C4.62411 6.45831 4.67207 6.85742 4.73602 7.25652M8.22131 1.22756C8.88479 1.95321 9.42037 2.76353 9.74812 3.62826H6.6945C7.02224 2.76353 7.55783 1.95321 8.22131 1.22756ZM13.753 3.62826H11.3948C11.139 2.87237 10.7713 2.14672 10.2917 1.47549C11.7625 1.85646 12.9856 2.62444 13.753 3.62826ZM8.22131 0C3.80075 0 0.227539 2.7212 0.227539 6.0471C0.227539 7.6509 1.06974 9.189 2.56886 10.3231C3.31115 10.8846 4.19238 11.33 5.16223 11.6339C6.13207 11.9378 7.17155 12.0942 8.22131 12.0942C10.3414 12.0942 12.3746 11.4571 13.8738 10.3231C15.3729 9.189 16.2151 7.6509 16.2151 6.0471C16.2151 5.25299 16.0083 4.46665 15.6066 3.73298C15.2049 2.99931 14.616 2.33268 13.8738 1.77116C13.1315 1.20963 12.2502 0.764204 11.2804 0.460308C10.3105 0.156413 9.27107 0 8.22131 0Z" fill="black" fill-opacity="0.8"/>
</svg>
