<svg width="28" height="17" viewBox="0 0 28 17" fill="none" xmlns="http://www.w3.org/2000/svg">
<path d="M26.4682 2.66141C26.1647 1.61862 25.2702 0.797359 24.1344 0.518651C22.0759 0.012207 13.8212 0.012207 13.8212 0.012207C13.8212 0.012207 5.56658 0.012207 3.50795 0.518651C2.37223 0.797403 1.47775 1.61862 1.17416 2.66141C0.622559 4.55151 0.622559 8.49504 0.622559 8.49504C0.622559 8.49504 0.622559 12.4386 1.17416 14.3287C1.47775 15.3715 2.37223 16.1585 3.50795 16.4372C5.56658 16.9437 13.8212 16.9437 13.8212 16.9437C13.8212 16.9437 22.0758 16.9437 24.1344 16.4372C25.2702 16.1585 26.1647 15.3715 26.4682 14.3287C27.0198 12.4386 27.0198 8.49504 27.0198 8.49504C27.0198 8.49504 27.0198 4.55151 26.4682 2.66141ZM11.1215 12.0755V4.91461L18.0207 8.49513L11.1215 12.0755Z" fill="black"/>
</svg>
