<svg width="23" height="21" viewBox="0 0 23 21" fill="none" xmlns="http://www.w3.org/2000/svg">
<path d="M22.5456 10.3477C22.5456 15.9757 17.547 20.5356 11.3776 20.5356C10.2247 20.5356 9.11692 20.3753 8.07216 20.0796C8.52699 19.4018 9.20698 18.2926 9.45917 17.4094C9.59426 16.9328 10.1527 14.9857 10.1527 14.9857C10.5174 15.6183 11.5802 16.1564 12.7105 16.1564C16.079 16.1564 18.5062 13.3301 18.5062 9.81781C18.5062 6.45336 15.4935 3.93516 11.6207 3.93516C6.80224 3.93516 4.23989 6.8847 4.23989 10.1013C4.23989 11.5966 5.11352 13.4575 6.50503 14.049C6.71668 14.1394 6.82926 14.0983 6.8788 13.9135C6.91482 13.7738 7.10396 13.0796 7.18952 12.7591C7.21654 12.6564 7.20303 12.5661 7.11297 12.4675C6.65814 11.954 6.28887 11.0173 6.28887 10.1423C6.28887 7.89526 8.15322 5.72214 11.3325 5.72214C14.075 5.72214 15.9979 7.42695 15.9979 9.8671C15.9979 12.6236 14.4713 14.5338 12.4854 14.5338C11.3911 14.5338 10.567 13.7081 10.8327 12.6934C11.1479 11.4815 11.7558 10.1752 11.7558 9.3002C11.7558 8.51968 11.2965 7.86651 10.3418 7.86651C9.22049 7.86651 8.31984 8.92226 8.31984 10.3395C8.31984 11.2433 8.65308 11.8513 8.65308 11.8513C8.65308 11.8513 7.54978 16.1154 7.34714 16.9123C7.12197 17.7914 7.21204 19.032 7.30661 19.8372C3.1546 18.3542 0.209473 14.6652 0.209473 10.3477C0.209473 4.71978 5.20809 0.159912 11.3776 0.159912C17.547 0.159912 22.5456 4.71978 22.5456 10.3477Z" fill="black"/>
</svg>
