<svg width="23" height="20" viewBox="0 0 23 20" fill="none" xmlns="http://www.w3.org/2000/svg">
<path d="M22.5459 9.84391C22.5459 14.9593 17.5473 19.1038 11.3778 19.1038C10.225 19.1038 9.11716 18.9582 8.07241 18.6894C8.52724 18.0733 9.20723 17.0652 9.45941 16.2624C9.59451 15.8293 10.1529 14.0594 10.1529 14.0594C10.5177 14.6344 11.5804 15.1236 12.7108 15.1236C16.0792 15.1236 18.5065 12.5547 18.5065 9.36224C18.5065 6.30423 15.4938 4.01538 11.621 4.01538C6.80249 4.01538 4.24013 6.69628 4.24013 9.61988C4.24013 10.979 5.11377 12.6704 6.50527 13.2081C6.71693 13.2902 6.82951 13.2529 6.87904 13.0849C6.91507 12.9579 7.10421 12.3269 7.18977 12.0357C7.21679 11.9423 7.20328 11.8602 7.11321 11.7706C6.65838 11.3038 6.28912 10.4525 6.28912 9.65722C6.28912 7.61481 8.15347 5.6396 11.3328 5.6396C14.0753 5.6396 15.9981 7.18915 15.9981 9.40705C15.9981 11.9125 14.4715 13.6487 12.4856 13.6487C11.3913 13.6487 10.5672 12.8982 10.8329 11.9759C11.1481 10.8744 11.7561 9.68709 11.7561 8.89178C11.7561 8.18235 11.2967 7.58867 10.342 7.58867C9.22074 7.58867 8.32009 8.54827 8.32009 9.83644C8.32009 10.6579 8.65333 11.2105 8.65333 11.2105C8.65333 11.2105 7.55003 15.0862 7.34738 15.8106C7.12222 16.6096 7.21228 17.7372 7.30685 18.4691C3.15485 17.1212 0.209717 13.7682 0.209717 9.84391C0.209717 4.72855 5.20833 0.583984 11.3778 0.583984C17.5473 0.583984 22.5459 4.72855 22.5459 9.84391Z" fill="black"/>
</svg>
