<svg width="18" height="13" viewBox="0 0 18 13" fill="none" xmlns="http://www.w3.org/2000/svg">
<path d="M17.0982 12.2628C17.381 12.0701 17.381 11.6531 17.0982 11.4603L15.278 10.2199C14.1815 9.47256 14.2233 7.84614 14.5438 6.55841C14.6316 6.20541 14.6591 5.84395 14.6227 5.48112C14.505 4.30555 13.7267 3.20617 12.4499 2.41168C11.173 1.61719 9.49591 1.18877 7.76738 1.21554C6.03884 1.2423 4.39199 1.7222 3.16942 2.55539C1.94684 3.38858 1.24267 4.51092 1.2034 5.68892C1.16412 6.86693 1.79276 8.0099 2.95855 8.88008C4.12433 9.75025 5.7375 10.2806 7.46246 10.3609C8.23121 10.3966 8.99579 10.3418 9.72481 10.2032C11.3254 9.89897 13.073 9.89233 14.4193 10.8098L16.5513 12.2628C16.7163 12.3752 16.9333 12.3752 17.0982 12.2628ZM2.44298 5.80031C2.44298 5.06061 2.76484 4.33752 3.36785 3.72248C3.97086 3.10745 4.82794 2.62808 5.83072 2.34501C6.83349 2.06194 7.93691 1.98788 9.00144 2.13219C10.066 2.27649 11.0438 2.63269 11.8113 3.15574C12.5788 3.67879 13.1015 4.34519 13.3132 5.07067C13.525 5.79616 13.4163 6.54815 13.0009 7.23154C12.5856 7.91493 11.8822 8.49904 10.9797 8.90999C10.0772 9.32095 9.01621 9.5403 7.93082 9.5403C6.47585 9.5392 5.08094 9.14481 4.05212 8.44366C3.0233 7.74252 2.4446 6.79188 2.44298 5.80031Z" fill="#979797" stroke="#979797"/>
</svg>
