<svg width="28" height="17" viewBox="0 0 28 17" fill="none" xmlns="http://www.w3.org/2000/svg">
<path d="M26.4697 2.66141C26.1661 1.61862 25.2716 0.797359 24.1359 0.518651C22.0773 0.012207 13.8227 0.012207 13.8227 0.012207C13.8227 0.012207 5.56804 0.012207 3.50942 0.518651C2.37369 0.797403 1.47921 1.61862 1.17562 2.66141C0.624023 4.55151 0.624023 8.49504 0.624023 8.49504C0.624023 8.49504 0.624023 12.4386 1.17562 14.3287C1.47921 15.3715 2.37369 16.1585 3.50942 16.4372C5.56804 16.9437 13.8227 16.9437 13.8227 16.9437C13.8227 16.9437 22.0773 16.9437 24.1359 16.4372C25.2716 16.1585 26.1661 15.3715 26.4697 14.3287C27.0213 12.4386 27.0213 8.49504 27.0213 8.49504C27.0213 8.49504 27.0213 4.55151 26.4697 2.66141ZM11.1229 12.0755V4.91461L18.0222 8.49513L11.1229 12.0755Z" fill="black"/>
</svg>
