<svg width="24" height="20" viewBox="0 0 24 20" fill="none" xmlns="http://www.w3.org/2000/svg">
<path d="M15.6148 9.38091C15.6148 9.94577 15.0405 10.4088 14.313 10.4088C13.5982 10.4088 13.0111 9.94577 13.0111 9.38091C13.0111 8.81606 13.5854 8.35306 14.313 8.35306C15.0405 8.35306 15.6148 8.81606 15.6148 9.38091ZM9.65427 8.35306C8.92675 8.35306 8.35239 8.81606 8.35239 9.38091C8.35239 9.94577 8.93951 10.4088 9.65427 10.4088C10.3818 10.4088 10.9562 9.94577 10.9562 9.38091C10.9689 8.81606 10.3818 8.35306 9.65427 8.35306ZM23.1325 2.49153V19.1038C19.917 17.0423 20.9454 17.7247 17.2103 15.2054L17.8867 16.9185H3.41291C1.97063 16.9185 0.796387 16.0666 0.796387 15.0109V2.49153C0.796387 1.4359 1.97063 0.583984 3.41291 0.583984H20.516C21.9583 0.583984 23.1325 1.4359 23.1325 2.49153ZM19.4949 11.2699C19.4949 8.28824 17.657 5.8714 17.657 5.8714C15.8191 4.87133 14.0704 4.89911 14.0704 4.89911L13.8918 5.04727C16.0616 5.52878 17.0699 6.22328 17.0699 6.22328C14.038 5.01772 10.4765 5.0175 7.53553 5.95474C7.06328 6.11216 6.78248 6.22328 6.78248 6.22328C6.78248 6.22328 7.84185 5.49174 10.1393 5.01023L10.0116 4.89911C10.0116 4.89911 8.26305 4.87133 6.4251 5.8714C6.4251 5.8714 4.58715 8.28824 4.58715 11.2699C4.58715 11.2699 5.65929 12.6126 8.48003 12.6774C8.48003 12.6774 8.95228 12.2607 9.33518 11.9089C7.71422 11.557 7.10157 10.8162 7.10157 10.8162C7.28933 10.9115 7.59895 11.0351 7.62487 11.0477C9.77921 11.923 12.8394 12.2097 15.5893 11.3718C16.036 11.2514 16.5338 11.0755 17.0571 10.8255C17.0571 10.8255 16.4189 11.5848 14.7469 11.9274C15.1298 12.2793 15.5893 12.6774 15.5893 12.6774C18.41 12.6126 19.4949 11.2699 19.4949 11.2699Z" fill="black"/>
</svg>
