<svg width="23" height="20" viewBox="0 0 23 20" fill="none" xmlns="http://www.w3.org/2000/svg">
<path d="M22.5458 9.84391C22.5458 14.9593 17.5472 19.1038 11.3778 19.1038C10.2249 19.1038 9.11712 18.9582 8.07236 18.6894C8.52719 18.0733 9.20718 17.0652 9.45936 16.2624C9.59446 15.8293 10.1529 14.0594 10.1529 14.0594C10.5176 14.6344 11.5804 15.1236 12.7107 15.1236C16.0792 15.1236 18.5064 12.5547 18.5064 9.36224C18.5064 6.30423 15.4937 4.01538 11.6209 4.01538C6.80244 4.01538 4.24009 6.69628 4.24009 9.61988C4.24009 10.979 5.11372 12.6704 6.50523 13.2081C6.71688 13.2902 6.82946 13.2529 6.879 13.0849C6.91502 12.9579 7.10416 12.3269 7.18972 12.0357C7.21674 11.9423 7.20323 11.8602 7.11317 11.7706C6.65834 11.3038 6.28907 10.4525 6.28907 9.65722C6.28907 7.61481 8.15342 5.6396 11.3327 5.6396C14.0752 5.6396 15.9981 7.18915 15.9981 9.40705C15.9981 11.9125 14.4715 13.6487 12.4856 13.6487C11.3913 13.6487 10.5672 12.8982 10.8329 11.9759C11.1481 10.8744 11.756 9.68709 11.756 8.89178C11.756 8.18235 11.2967 7.58867 10.342 7.58867C9.22069 7.58867 8.32004 8.54827 8.32004 9.83644C8.32004 10.6579 8.65328 11.2105 8.65328 11.2105C8.65328 11.2105 7.54998 15.0862 7.34734 15.8106C7.12217 16.6096 7.21224 17.7372 7.30681 18.4691C3.1548 17.1212 0.209671 13.7682 0.209671 9.84391C0.209671 4.72855 5.20829 0.583984 11.3778 0.583984C17.5472 0.583984 22.5458 4.72855 22.5458 9.84391Z" fill="black"/>
</svg>
