<svg width="23" height="20" viewBox="0 0 23 20" fill="none" xmlns="http://www.w3.org/2000/svg">
<path d="M11.5536 5.09565C8.38446 5.09565 5.8282 7.21563 5.8282 9.84391C5.8282 12.4722 8.38446 14.5922 11.5536 14.5922C14.7228 14.5922 17.2791 12.4722 17.2791 9.84391C17.2791 7.21563 14.7228 5.09565 11.5536 5.09565ZM11.5536 12.9309C9.50563 12.9309 7.83135 11.5465 7.83135 9.84391C7.83135 8.14131 9.50065 6.75692 11.5536 6.75692C13.6066 6.75692 15.2759 8.14131 15.2759 9.84391C15.2759 11.5465 13.6016 12.9309 11.5536 12.9309ZM18.8487 4.90143C18.8487 5.51717 18.2507 6.00894 17.5133 6.00894C16.7708 6.00894 16.1778 5.51304 16.1778 4.90143C16.1778 4.28981 16.7758 3.79391 17.5133 3.79391C18.2507 3.79391 18.8487 4.28981 18.8487 4.90143ZM22.6407 6.02547C22.556 4.5419 22.1474 3.22776 20.8369 2.14504C19.5314 1.06232 17.9468 0.723457 16.1579 0.649071C14.3142 0.562289 8.78808 0.562289 6.94438 0.649071C5.16048 0.719324 3.57589 1.05819 2.26537 2.14091C0.954853 3.22363 0.551232 4.53776 0.461538 6.02134C0.356896 7.55036 0.356896 12.1333 0.461538 13.6623C0.546249 15.1459 0.954853 16.4601 2.26537 17.5428C3.57589 18.6255 5.1555 18.9644 6.94438 19.0387C8.78808 19.1255 14.3142 19.1255 16.1579 19.0387C17.9468 18.9685 19.5314 18.6296 20.8369 17.5428C22.1424 16.4601 22.551 15.1459 22.6407 13.6623C22.7454 12.1333 22.7454 7.5545 22.6407 6.02547ZM20.2589 15.303C19.8702 16.1129 19.1178 16.7369 18.1361 17.0634C16.6662 17.5469 13.1781 17.4353 11.5536 17.4353C9.92918 17.4353 6.43612 17.5428 4.97113 17.0634C3.99446 16.7411 3.24204 16.1171 2.84838 15.303C2.26537 14.0839 2.39991 11.1911 2.39991 9.84391C2.39991 8.49671 2.27036 5.59982 2.84838 4.38486C3.23705 3.57489 3.98948 2.95088 4.97113 2.62441C6.4411 2.14091 9.92918 2.25249 11.5536 2.25249C13.1781 2.25249 16.6711 2.14504 18.1361 2.62441C19.1128 2.94675 19.8652 3.57076 20.2589 4.38486C20.8419 5.60395 20.7073 8.49671 20.7073 9.84391C20.7073 11.1911 20.8419 14.088 20.2589 15.303Z" fill="black"/>
</svg>
