<svg width="28" height="16" viewBox="0 0 28 16" fill="none" xmlns="http://www.w3.org/2000/svg">
<path d="M26.4687 2.67549C26.1651 1.72768 25.2707 0.981219 24.1349 0.727896C22.0764 0.267578 13.8217 0.267578 13.8217 0.267578C13.8217 0.267578 5.56707 0.267578 3.50844 0.727896C2.37272 0.981259 1.47823 1.72768 1.17464 2.67549C0.623047 4.39345 0.623047 7.9778 0.623047 7.9778C0.623047 7.9778 0.623047 11.5622 1.17464 13.2801C1.47823 14.2279 2.37272 14.9433 3.50844 15.1966C5.56707 15.6569 13.8217 15.6569 13.8217 15.6569C13.8217 15.6569 22.0763 15.6569 24.1349 15.1966C25.2707 14.9433 26.1651 14.2279 26.4687 13.2801C27.0203 11.5622 27.0203 7.9778 27.0203 7.9778C27.0203 7.9778 27.0203 4.39345 26.4687 2.67549ZM11.1219 11.2321V4.72347L18.0212 7.97788L11.1219 11.2321Z" fill="black"/>
</svg>
