<svg width="21" height="20" viewBox="0 0 21 20" fill="none" xmlns="http://www.w3.org/2000/svg">
<path d="M19.4542 18.5415C19.7258 18.2768 19.7258 17.8403 19.4542 17.5757L17.2524 15.4301C15.8672 14.0803 15.8894 11.8777 16.3382 9.99644C16.5056 9.29486 16.5674 8.56719 16.5162 7.83605C16.3843 5.95259 15.5122 4.19121 14.0815 2.91831C12.6507 1.64541 10.7715 0.959011 8.8346 1.00189C6.89773 1.04478 5.05239 1.81365 3.68246 3.14855C2.31253 4.48346 1.52349 6.28163 1.47948 8.16898C1.43547 10.0563 2.13988 11.8876 3.44617 13.2817C4.75247 14.6759 6.56006 15.5256 8.49293 15.6542C9.26081 15.7053 10.025 15.641 10.7605 15.4691C12.6697 15.0231 14.8823 15.0035 16.2865 16.3718L18.5131 18.5415C18.7749 18.7966 19.1924 18.7966 19.4542 18.5415ZM2.86847 8.34744C2.86847 7.16232 3.22912 6.00382 3.90481 5.01843C4.5805 4.03304 5.54089 3.26502 6.66452 2.8115C7.78815 2.35797 9.02456 2.23931 10.2174 2.47051C11.4102 2.70172 12.5059 3.27241 13.3659 4.11041C14.2259 4.94842 14.8116 6.0161 15.0488 7.17845C15.2861 8.34079 15.1643 9.5456 14.6989 10.6405C14.2335 11.7354 13.4453 12.6712 12.4341 13.3297C11.4228 13.9881 10.2339 14.3395 9.01774 14.3395C7.38741 14.3377 5.82437 13.7059 4.67155 12.5825C3.51873 11.4592 2.87028 9.9361 2.86847 8.34744Z" fill="#979797" stroke="#979797"/>
</svg>
