<svg width="19" height="13" viewBox="0 0 19 13" fill="none" xmlns="http://www.w3.org/2000/svg">
<path d="M17.3714 12.2628C17.6542 12.0701 17.6542 11.6531 17.3714 11.4603L15.5512 10.2199C14.4547 9.47256 14.4965 7.84614 14.817 6.55841C14.9048 6.20541 14.9323 5.84395 14.8959 5.48112C14.7782 4.30555 13.9999 3.20617 12.7231 2.41168C11.4462 1.61719 9.76911 1.18877 8.04057 1.21554C6.31203 1.2423 4.66518 1.7222 3.44261 2.55539C2.22003 3.38858 1.51586 4.51092 1.47659 5.68892C1.43731 6.86693 2.06596 8.0099 3.23174 8.88008C4.39752 9.75025 6.01069 10.2806 7.73566 10.3609C8.50441 10.3966 9.26898 10.3418 9.99801 10.2032C11.5986 9.89897 13.3462 9.89233 14.6925 10.8098L16.8245 12.2628C16.9895 12.3752 17.2064 12.3752 17.3714 12.2628ZM2.71618 5.80031C2.71618 5.06061 3.03803 4.33752 3.64104 3.72248C4.24406 3.10745 5.10114 2.62808 6.10391 2.34501C7.10668 2.06194 8.2101 1.98788 9.27463 2.13219C10.3392 2.27649 11.317 2.63269 12.0845 3.15574C12.852 3.67879 13.3747 4.34519 13.5864 5.07067C13.7981 5.79616 13.6895 6.54815 13.2741 7.23154C12.8587 7.91493 12.1554 8.49904 11.2529 8.90999C10.3504 9.32095 9.2894 9.5403 8.20401 9.5403C6.74904 9.5392 5.35413 9.14481 4.32531 8.44366C3.29649 7.74252 2.71779 6.79188 2.71618 5.80031Z" fill="#979797" stroke="#979797"/>
</svg>
