<svg width="21" height="20" viewBox="0 0 21 20" fill="none" xmlns="http://www.w3.org/2000/svg">
<path d="M19.4547 18.5415C19.7263 18.2768 19.7263 17.8403 19.4547 17.5757L17.2528 15.4301C15.8676 14.0803 15.8899 11.8777 16.3387 9.99644C16.5061 9.29486 16.5679 8.56719 16.5167 7.83605C16.3847 5.95259 15.5127 4.19121 14.082 2.91831C12.6512 1.64541 10.772 0.959011 8.83508 1.00189C6.89821 1.04478 5.05288 1.81365 3.68295 3.14855C2.31302 4.48346 1.52398 6.28163 1.47997 8.16898C1.43596 10.0563 2.14037 11.8876 3.44666 13.2817C4.75295 14.6759 6.56055 15.5256 8.49342 15.6542C9.26129 15.7053 10.0254 15.641 10.761 15.4691C12.6702 15.0231 14.8828 15.0035 16.287 16.3718L18.5136 18.5415C18.7754 18.7966 19.1929 18.7966 19.4547 18.5415ZM2.86896 8.34744C2.86896 7.16232 3.22961 6.00382 3.9053 5.01843C4.58099 4.03304 5.54137 3.26502 6.665 2.8115C7.78863 2.35797 9.02505 2.23931 10.2179 2.47051C11.4107 2.70172 12.5064 3.27241 13.3664 4.11041C14.2264 4.94842 14.8121 6.0161 15.0493 7.17845C15.2866 8.34079 15.1648 9.5456 14.6994 10.6405C14.234 11.7354 13.4458 12.6712 12.4346 13.3297C11.4233 13.9881 10.2344 14.3395 9.01822 14.3395C7.38789 14.3377 5.82486 13.7059 4.67204 12.5825C3.51922 11.4592 2.87077 9.9361 2.86896 8.34744Z" fill="#979797" stroke="#979797"/>
</svg>
