<svg width="23" height="21" viewBox="0 0 23 21" fill="none" xmlns="http://www.w3.org/2000/svg">
<path d="M11.5553 5.12368C8.38617 5.12368 5.8299 7.45609 5.8299 10.3477C5.8299 13.2394 8.38617 15.5718 11.5553 15.5718C14.7245 15.5718 17.2808 13.2394 17.2808 10.3477C17.2808 7.45609 14.7245 5.12368 11.5553 5.12368ZM11.5553 13.7441C9.50733 13.7441 7.83306 12.2209 7.83306 10.3477C7.83306 8.47453 9.50235 6.95142 11.5553 6.95142C13.6083 6.95142 15.2776 8.47453 15.2776 10.3477C15.2776 12.2209 13.6033 13.7441 11.5553 13.7441ZM18.8504 4.90999C18.8504 5.58743 18.2524 6.12848 17.515 6.12848C16.7725 6.12848 16.1795 5.58289 16.1795 4.90999C16.1795 4.23709 16.7775 3.69149 17.515 3.69149C18.2524 3.69149 18.8504 4.23709 18.8504 4.90999ZM22.6424 6.14667C22.5577 4.51443 22.1491 3.06861 20.8386 1.8774C19.5331 0.686182 17.9485 0.31336 16.1596 0.231521C14.3159 0.136042 8.78979 0.136042 6.94609 0.231521C5.16219 0.308814 3.5776 0.681636 2.26708 1.87285C0.956561 3.06406 0.552941 4.50988 0.463247 6.14212C0.358605 7.82437 0.358605 12.8666 0.463247 14.5488C0.547958 16.181 0.956561 17.6269 2.26708 18.8181C3.5776 20.0093 5.1572 20.3821 6.94609 20.464C8.78979 20.5594 14.3159 20.5594 16.1596 20.464C17.9485 20.3867 19.5331 20.0138 20.8386 18.8181C22.1441 17.6269 22.5527 16.181 22.6424 14.5488C22.7471 12.8666 22.7471 7.82891 22.6424 6.14667ZM20.2606 16.3538C19.8719 17.2449 19.1195 17.9315 18.1378 18.2907C16.6679 18.8226 13.1798 18.6999 11.5553 18.6999C9.93089 18.6999 6.43783 18.8181 4.97283 18.2907C3.99617 17.936 3.24374 17.2495 2.85009 16.3538C2.26708 15.0126 2.40162 11.8299 2.40162 10.3477C2.40162 8.86554 2.27206 5.67836 2.85009 4.34166C3.23876 3.45052 3.99119 2.76398 4.97283 2.4048C6.44281 1.87285 9.93089 1.99561 11.5553 1.99561C13.1798 1.99561 16.6728 1.8774 18.1378 2.4048C19.1145 2.75944 19.8669 3.44598 20.2606 4.34166C20.8436 5.68291 20.709 8.86554 20.709 10.3477C20.709 11.8299 20.8436 15.0171 20.2606 16.3538Z" fill="black"/>
</svg>
