<svg width="24" height="21" viewBox="0 0 24 21" fill="none" xmlns="http://www.w3.org/2000/svg">
<path d="M15.6143 9.83859C15.6143 10.46 15.04 10.9694 14.3125 10.9694C13.5977 10.9694 13.0106 10.46 13.0106 9.83859C13.0106 9.21713 13.5849 8.70774 14.3125 8.70774C15.04 8.70774 15.6143 9.21713 15.6143 9.83859ZM9.65378 8.70774C8.92626 8.70774 8.3519 9.21713 8.3519 9.83859C8.3519 10.46 8.93902 10.9694 9.65378 10.9694C10.3813 10.9694 10.9557 10.46 10.9557 9.83859C10.9684 9.21713 10.3813 8.70774 9.65378 8.70774ZM23.1321 2.25885V20.5358C19.9165 18.2677 20.9449 19.0185 17.2098 16.2467L17.8862 18.1315H3.41242C1.97014 18.1315 0.795898 17.1942 0.795898 16.0328V2.25885C0.795898 1.09744 1.97014 0.160156 3.41242 0.160156H20.5155C21.9578 0.160156 23.1321 1.09744 23.1321 2.25885ZM19.4944 11.9169C19.4944 8.63643 17.6565 5.9774 17.6565 5.9774C15.8186 4.87712 14.07 4.90768 14.07 4.90768L13.8913 5.07069C16.0611 5.60045 17.0694 6.36454 17.0694 6.36454C14.0375 5.03817 10.476 5.03794 7.53504 6.06909C7.06279 6.24229 6.78199 6.36454 6.78199 6.36454C6.78199 6.36454 7.84136 5.5597 10.1388 5.02994L10.0112 4.90768C10.0112 4.90768 8.26256 4.87712 6.42461 5.9774C6.42461 5.9774 4.58666 8.63643 4.58666 11.9169C4.58666 11.9169 5.6588 13.3941 8.47954 13.4655C8.47954 13.4655 8.95179 13.007 9.33469 12.6199C7.71372 12.2327 7.10108 11.4177 7.10108 11.4177C7.28884 11.5226 7.59845 11.6586 7.62438 11.6724C9.77872 12.6354 12.8389 12.9509 15.5888 12.029C16.0355 11.8965 16.5333 11.703 17.0566 11.4279C17.0566 11.4279 16.4184 12.2633 14.7464 12.6402C15.1293 13.0274 15.5888 13.4655 15.5888 13.4655C18.4096 13.3941 19.4944 11.9169 19.4944 11.9169Z" fill="black"/>
</svg>
