<svg width="24" height="21" viewBox="0 0 24 21" fill="none" xmlns="http://www.w3.org/2000/svg">
<path d="M15.6143 9.83834C15.6143 10.4598 15.04 10.9692 14.3125 10.9692C13.5977 10.9692 13.0106 10.4598 13.0106 9.83834C13.0106 9.21689 13.5849 8.7075 14.3125 8.7075C15.04 8.7075 15.6143 9.21689 15.6143 9.83834ZM9.65378 8.7075C8.92626 8.7075 8.3519 9.21689 8.3519 9.83834C8.3519 10.4598 8.93902 10.9692 9.65378 10.9692C10.3813 10.9692 10.9557 10.4598 10.9557 9.83834C10.9684 9.21689 10.3813 8.7075 9.65378 8.7075ZM23.1321 2.2586V20.5356C19.9165 18.2674 20.9449 19.0182 17.2098 16.2465L17.8863 18.1312H3.41242C1.97014 18.1312 0.795898 17.194 0.795898 16.0325V2.2586C0.795898 1.09719 1.97014 0.159912 3.41242 0.159912H20.5155C21.9578 0.159912 23.1321 1.09719 23.1321 2.2586ZM19.4945 11.9167C19.4945 8.63618 17.6565 5.97716 17.6565 5.97716C15.8186 4.87687 14.07 4.90744 14.07 4.90744L13.8913 5.07044C16.0611 5.60021 17.0694 6.3643 17.0694 6.3643C14.0375 5.03793 10.476 5.03769 7.53504 6.06885C7.06279 6.24204 6.78199 6.3643 6.78199 6.3643C6.78199 6.3643 7.84136 5.55946 10.1388 5.02969L10.0112 4.90744C10.0112 4.90744 8.26256 4.87687 6.42461 5.97716C6.42461 5.97716 4.58666 8.63618 4.58666 11.9167C4.58666 11.9167 5.6588 13.3939 8.47954 13.4652C8.47954 13.4652 8.95179 13.0068 9.33469 12.6196C7.71373 12.2325 7.10108 11.4175 7.10108 11.4175C7.28884 11.5224 7.59846 11.6583 7.62438 11.6722C9.77873 12.6351 12.8389 12.9506 15.5888 12.0287C16.0355 11.8963 16.5333 11.7027 17.0566 11.4276C17.0566 11.4276 16.4184 12.263 14.7464 12.64C15.1293 13.0271 15.5888 13.4652 15.5888 13.4652C18.4096 13.3939 19.4945 11.9167 19.4945 11.9167Z" fill="black"/>
</svg>
