<svg width="28" height="16" viewBox="0 0 28 16" fill="none" xmlns="http://www.w3.org/2000/svg">
<path d="M26.4687 2.67555C26.1651 1.72774 25.2706 0.98128 24.1349 0.727957C22.0763 0.267639 13.8216 0.267639 13.8216 0.267639C13.8216 0.267639 5.56701 0.267639 3.50838 0.727957C2.37266 0.98132 1.47817 1.72774 1.17458 2.67555C0.622986 4.39351 0.622986 7.97786 0.622986 7.97786C0.622986 7.97786 0.622986 11.5622 1.17458 13.2802C1.47817 14.228 2.37266 14.9433 3.50838 15.1967C5.56701 15.657 13.8216 15.657 13.8216 15.657C13.8216 15.657 22.0762 15.657 24.1349 15.1967C25.2706 14.9433 26.1651 14.228 26.4687 13.2802C27.0203 11.5622 27.0203 7.97786 27.0203 7.97786C27.0203 7.97786 27.0203 4.39351 26.4687 2.67555ZM11.1219 11.2322V4.72354L18.0211 7.97794L11.1219 11.2322Z" fill="black"/>
</svg>
