<svg width="16" height="13" viewBox="0 0 16 13" fill="none" xmlns="http://www.w3.org/2000/svg">
<path d="M11.488 7.25652C11.552 6.85742 11.6 6.45831 11.6 6.0471C11.6 5.6359 11.552 5.23679 11.488 4.83768H14.192C14.32 5.2247 14.4 5.62985 14.4 6.0471C14.4 6.46435 14.32 6.86951 14.192 7.25652M10.072 10.6187C10.552 9.94748 10.92 9.22183 11.176 8.46594H13.536C12.768 9.46372 11.544 10.2377 10.072 10.6187ZM9.872 7.25652H6.128C6.048 6.85742 6 6.45831 6 6.0471C6 5.6359 6.048 5.23074 6.128 4.83768H9.872C9.944 5.23074 10 5.6359 10 6.0471C10 6.45831 9.944 6.85742 9.872 7.25652ZM8 10.8606C7.336 10.1349 6.8 9.33068 6.472 8.46594H9.528C9.2 9.33068 8.664 10.1349 8 10.8606ZM4.8 3.62826H2.464C3.224 2.62444 4.456 1.85041 5.92 1.47549C5.44 2.14672 5.08 2.87237 4.8 3.62826ZM2.464 8.46594H4.8C5.08 9.22183 5.44 9.94748 5.92 10.6187C4.456 10.2377 3.224 9.46372 2.464 8.46594ZM1.808 7.25652C1.68 6.86951 1.6 6.46435 1.6 6.0471C1.6 5.62985 1.68 5.2247 1.808 4.83768H4.512C4.448 5.23679 4.4 5.6359 4.4 6.0471C4.4 6.45831 4.448 6.85742 4.512 7.25652M8 1.22756C8.664 1.95321 9.2 2.76353 9.528 3.62826H6.472C6.8 2.76353 7.336 1.95321 8 1.22756ZM13.536 3.62826H11.176C10.92 2.87237 10.552 2.14672 10.072 1.47549C11.544 1.85646 12.768 2.62444 13.536 3.62826ZM8 0C3.576 0 0 2.7212 0 6.0471C0 7.6509 0.842855 9.189 2.34315 10.3231C3.08601 10.8846 3.96793 11.33 4.93853 11.6339C5.90914 11.9378 6.94943 12.0942 8 12.0942C10.1217 12.0942 12.1566 11.4571 13.6569 10.3231C15.1571 9.189 16 7.6509 16 6.0471C16 5.25299 15.7931 4.46665 15.391 3.73298C14.989 2.99931 14.3997 2.33268 13.6569 1.77116C12.914 1.20963 12.0321 0.764204 11.0615 0.460308C10.0909 0.156413 9.05058 0 8 0Z" fill="black" fill-opacity="0.8"/>
</svg>
