<svg width="35" height="23" viewBox="0 0 35 23" fill="none" xmlns="http://www.w3.org/2000/svg">
<path d="M34.9794 15.4661V2.20944C34.9794 1.62346 34.6109 1.06148 33.9549 0.64713C33.2989 0.23278 32.4092 0 31.4815 0H10.4938C9.56611 0 8.6764 0.23278 8.02041 0.64713C7.36441 1.06148 6.99588 1.62346 6.99588 2.20944V15.4661C6.99588 16.0521 7.36441 16.6141 8.02041 17.0284C8.6764 17.4428 9.56611 17.6755 10.4938 17.6755H31.4815C32.4092 17.6755 33.2989 17.4428 33.9549 17.0284C34.6109 16.6141 34.9794 16.0521 34.9794 15.4661ZM15.7407 11.0472L19.2911 14.041L24.4856 9.94249L31.4815 15.4661H10.4938M0 4.41888V19.885C0 20.471 0.368532 21.0329 1.02452 21.4473C1.68051 21.8616 2.57023 22.0944 3.49794 22.0944H27.9835V19.885H3.49794V4.41888" fill="white"/>
</svg>
