<svg width="20" height="20" viewBox="0 0 20 20" fill="none" xmlns="http://www.w3.org/2000/svg">
<path d="M18.9303 18.5411C19.2016 18.2766 19.2016 17.8406 18.9303 17.576L16.7298 15.4301C15.3454 14.0801 15.3676 11.8782 15.8162 9.9972C15.9836 9.29539 16.0454 8.56745 15.9942 7.83605C15.8624 5.95259 14.991 4.19121 13.5614 2.91831C12.1318 1.64541 10.254 0.959011 8.31861 1.00189C6.38325 1.04478 4.53935 1.81365 3.17049 3.14855C1.80163 4.48346 1.0132 6.28163 0.969228 8.16898C0.925253 10.0563 1.62911 11.8876 2.93439 13.2817C4.23966 14.6759 6.04585 15.5256 7.97722 15.6542C8.74423 15.7053 9.50754 15.641 10.2423 15.4693C12.1503 15.0234 14.3619 15.0038 15.7647 16.3718L17.9892 18.5411C18.251 18.7964 18.6685 18.7964 18.9303 18.5411ZM2.35714 8.34744C2.35714 7.16232 2.7175 6.00382 3.39267 5.01843C4.06783 4.03304 5.02747 3.26502 6.15022 2.8115C7.27298 2.35797 8.50843 2.23931 9.70034 2.47051C10.8922 2.70172 11.9871 3.27241 12.8464 4.11041C13.7057 4.94842 14.2909 6.0161 14.528 7.17845C14.7651 8.34079 14.6434 9.5456 14.1784 10.6405C13.7133 11.7354 12.9257 12.6712 11.9153 13.3297C10.9048 13.9881 9.71687 14.3395 8.50161 14.3395C6.87255 14.3377 5.31073 13.7059 4.15881 12.5825C3.00689 11.4592 2.35894 9.9361 2.35714 8.34744Z" fill="#979797" stroke="#979797"/>
</svg>
