<svg width="22" height="20" viewBox="0 0 22 20" fill="none" xmlns="http://www.w3.org/2000/svg">
<path d="M20.513 18.5838C20.8272 18.3042 20.8272 17.813 20.513 17.5333L18.1496 15.4297C16.672 14.1145 16.7012 11.8235 17.1732 9.90255C17.3384 9.23004 17.3978 8.53463 17.3442 7.83605C17.1998 5.95259 16.2451 4.19121 14.6789 2.91831C13.1126 1.64541 11.0553 0.959011 8.9349 1.00189C6.81454 1.04478 4.79438 1.81365 3.29467 3.14855C1.79496 4.48346 0.931167 6.28163 0.882988 8.16898C0.83481 10.0563 1.60595 11.8876 3.036 13.2817C4.46604 14.6759 6.44488 15.5256 8.56087 15.6542C9.43224 15.7071 10.2992 15.6361 11.1315 15.4499C13.1838 14.9906 15.5224 14.974 17.0933 16.3723L19.5779 18.5838C19.8444 18.8211 20.2464 18.8211 20.513 18.5838V18.5838ZM2.40357 8.34744C2.40357 7.16232 2.79838 6.00382 3.53808 5.01843C4.27779 4.03304 5.32915 3.26502 6.55923 2.8115C7.78931 2.35797 9.14286 2.23931 10.4487 2.47051C11.7546 2.70172 12.954 3.27241 13.8955 4.11041C14.837 4.94842 15.4781 6.0161 15.7379 7.17845C15.9976 8.34079 15.8643 9.5456 15.3548 10.6405C14.8453 11.7354 13.9824 12.6712 12.8754 13.3297C11.7683 13.9881 10.4668 14.3395 9.13539 14.3395C7.35061 14.3377 5.63949 13.7059 4.37746 12.5825C3.11543 11.4592 2.40555 9.93609 2.40357 8.34744Z" fill="#979797" stroke="#979797"/>
</svg>
