<svg width="23" height="13" viewBox="0 0 23 13" fill="none" xmlns="http://www.w3.org/2000/svg">
<path d="M16.045 7.25652C16.133 6.85742 16.199 6.45831 16.199 6.0471C16.199 5.6359 16.133 5.23679 16.045 4.83768H19.763C19.939 5.2247 20.049 5.62985 20.049 6.0471C20.049 6.46435 19.939 6.86951 19.763 7.25652M14.098 10.6187C14.758 9.94748 15.264 9.22183 15.616 8.46594H18.861C17.805 9.46372 16.122 10.2377 14.098 10.6187ZM13.823 7.25652H8.67503C8.56503 6.85742 8.49903 6.45831 8.49903 6.0471C8.49903 5.6359 8.56503 5.23074 8.67503 4.83768H13.823C13.922 5.23074 13.999 5.6359 13.999 6.0471C13.999 6.45831 13.922 6.85742 13.823 7.25652ZM11.249 10.8606C10.336 10.1349 9.59903 9.33068 9.14803 8.46594H13.35C12.899 9.33068 12.162 10.1349 11.249 10.8606ZM6.84903 3.62826H3.63702C4.68203 2.62444 6.37603 1.85041 8.38903 1.47549C7.72903 2.14672 7.23403 2.87237 6.84903 3.62826ZM3.63702 8.46594H6.84903C7.23403 9.22183 7.72903 9.94748 8.38903 10.6187C6.37603 10.2377 4.68203 9.46372 3.63702 8.46594ZM2.73502 7.25652C2.55902 6.86951 2.44902 6.46435 2.44902 6.0471C2.44902 5.62985 2.55902 5.2247 2.73502 4.83768H6.45303C6.36503 5.23679 6.29903 5.6359 6.29903 6.0471C6.29903 6.45831 6.36503 6.85742 6.45303 7.25652M11.249 1.22756C12.162 1.95321 12.899 2.76353 13.35 3.62826H9.14803C9.59903 2.76353 10.336 1.95321 11.249 1.22756ZM18.861 3.62826H15.616C15.264 2.87237 14.758 2.14672 14.098 1.47549C16.122 1.85646 17.805 2.62444 18.861 3.62826ZM11.249 0C5.16603 0 0.249023 2.7212 0.249023 6.0471C0.249023 7.65089 1.40795 9.189 3.47085 10.3231C4.4923 10.8846 5.70493 11.33 7.03951 11.6339C8.37409 11.9378 9.80449 12.0942 11.249 12.0942C14.1664 12.0942 16.9643 11.4571 19.0272 10.3231C21.0901 9.189 22.249 7.65089 22.249 6.0471C22.249 5.25299 21.9645 4.46665 21.4117 3.73298C20.8589 2.99931 20.0487 2.33268 19.0272 1.77116C18.0058 1.20963 16.7931 0.764204 15.4585 0.460308C14.124 0.156413 12.6936 0 11.249 0Z" fill="black" fill-opacity="0.8"/>
</svg>
