<svg width="23" height="21" viewBox="0 0 23 21" fill="none" xmlns="http://www.w3.org/2000/svg">
<path d="M22.5461 10.3477C22.5461 15.9757 17.5475 20.5356 11.378 20.5356C10.2252 20.5356 9.1174 20.3753 8.07265 20.0796C8.52748 19.4018 9.20747 18.2926 9.45965 17.4094C9.59475 16.9328 10.1532 14.9857 10.1532 14.9857C10.5179 15.6183 11.5807 16.1564 12.711 16.1564C16.0794 16.1564 18.5067 13.3301 18.5067 9.81781C18.5067 6.45336 15.494 3.93516 11.6212 3.93516C6.80273 3.93516 4.24038 6.8847 4.24038 10.1013C4.24038 11.5966 5.11401 13.4575 6.50551 14.049C6.71717 14.1394 6.82975 14.0983 6.87928 13.9135C6.91531 13.7738 7.10445 13.0796 7.19001 12.7591C7.21703 12.6564 7.20352 12.5661 7.11345 12.4675C6.65862 11.954 6.28936 11.0173 6.28936 10.1423C6.28936 7.89526 8.15371 5.72214 11.333 5.72214C14.0755 5.72214 15.9984 7.42695 15.9984 9.8671C15.9984 12.6236 14.4718 14.5338 12.4858 14.5338C11.3915 14.5338 10.5675 13.7081 10.8331 12.6934C11.1484 11.4815 11.7563 10.1752 11.7563 9.3002C11.7563 8.51968 11.297 7.86651 10.3423 7.86651C9.22098 7.86651 8.32033 8.92226 8.32033 10.3395C8.32033 11.2433 8.65357 11.8513 8.65357 11.8513C8.65357 11.8513 7.55027 16.1154 7.34762 16.9123C7.12246 17.7914 7.21253 19.032 7.30709 19.8372C3.15509 18.3542 0.209961 14.6652 0.209961 10.3477C0.209961 4.71978 5.20858 0.159912 11.378 0.159912C17.5475 0.159912 22.5461 4.71978 22.5461 10.3477Z" fill="black"/>
</svg>
