<svg width="23" height="21" viewBox="0 0 23 21" fill="none" xmlns="http://www.w3.org/2000/svg">
<path d="M14.8782 10.4415C14.8782 11.0546 14.3043 11.5572 13.5774 11.5572C12.8632 11.5572 12.2765 11.0546 12.2765 10.4415C12.2765 9.82844 12.8504 9.3259 13.5774 9.3259C14.3043 9.3259 14.8782 9.82844 14.8782 10.4415ZM8.9223 9.3259C8.19534 9.3259 7.62143 9.82844 7.62143 10.4415C7.62143 11.0546 8.20809 11.5572 8.9223 11.5572C9.64925 11.5572 10.2232 11.0546 10.2232 10.4415C10.2359 9.82844 9.64925 9.3259 8.9223 9.3259ZM22.3901 2.96377V20.9948C19.1771 18.7572 20.2047 19.4979 16.4724 16.7635L17.1484 18.6229H2.68578C1.24462 18.6229 0.0712891 17.6982 0.0712891 16.5524V2.96377C0.0712891 1.81798 1.24462 0.893311 2.68578 0.893311H19.7756C21.2168 0.893311 22.3901 1.81798 22.3901 2.96377ZM18.7553 12.4919C18.7553 9.25555 16.9188 6.6323 16.9188 6.6323C15.0823 5.54682 13.335 5.57697 13.335 5.57697L13.1565 5.73778C15.3246 6.26042 16.3321 7.01423 16.3321 7.01423C13.3026 5.7057 9.74391 5.70547 6.8052 6.72276C6.33331 6.89362 6.05273 7.01423 6.05273 7.01423C6.05273 7.01423 7.11128 6.22022 9.40693 5.69758L9.2794 5.57697C9.2794 5.57697 7.53215 5.54682 5.69563 6.6323C5.69563 6.6323 3.85911 9.25555 3.85911 12.4919C3.85911 12.4919 4.93042 13.9493 7.74896 14.0196C7.74896 14.0196 8.22085 13.5673 8.60346 13.1854C6.98375 12.8035 6.37157 11.9994 6.37157 11.9994C6.55919 12.1029 6.86857 12.2371 6.89447 12.2507C9.04714 13.2007 12.1049 13.512 14.8527 12.6025C15.2991 12.4718 15.7965 12.2808 16.3194 12.0095C16.3194 12.0095 15.6817 12.8336 14.011 13.2055C14.3936 13.5874 14.8527 14.0196 14.8527 14.0196C17.6713 13.9493 18.7553 12.4919 18.7553 12.4919Z" fill="black"/>
</svg>
