<svg width="28" height="18" viewBox="0 0 28 18" fill="none" xmlns="http://www.w3.org/2000/svg">
<path d="M26.6733 3.33426C26.3699 2.30551 25.4761 1.49529 24.3413 1.22033C22.2843 0.720703 14.036 0.720703 14.036 0.720703C14.036 0.720703 5.78784 0.720703 3.73081 1.22033C2.59597 1.49534 1.70218 2.30551 1.39882 3.33426C0.847656 5.19894 0.847656 9.08942 0.847656 9.08942C0.847656 9.08942 0.847656 12.9799 1.39882 14.8446C1.70218 15.8733 2.59597 16.6498 3.73081 16.9247C5.78784 17.4244 14.036 17.4244 14.036 17.4244C14.036 17.4244 22.2843 17.4244 24.3413 16.9247C25.4761 16.6498 26.3699 15.8733 26.6733 14.8446C27.2244 12.9799 27.2244 9.08942 27.2244 9.08942C27.2244 9.08942 27.2244 5.19894 26.6733 3.33426ZM11.3384 12.6217V5.55715L18.2323 9.0895L11.3384 12.6217Z" fill="black"/>
</svg>
