<svg width="24" height="21" viewBox="0 0 24 21" fill="none" xmlns="http://www.w3.org/2000/svg">
<path d="M11.8453 5.7903C8.67854 5.7903 6.12426 8.09133 6.12426 10.9441C6.12426 13.7968 8.67854 16.0979 11.8453 16.0979C15.012 16.0979 17.5662 13.7968 17.5662 10.9441C17.5662 8.09133 15.012 5.7903 11.8453 5.7903ZM11.8453 14.2947C9.79884 14.2947 8.12586 12.7921 8.12586 10.9441C8.12586 9.09607 9.79386 7.59345 11.8453 7.59345C13.8966 7.59345 15.5646 9.09607 15.5646 10.9441C15.5646 12.7921 13.8917 14.2947 11.8453 14.2947ZM19.1347 5.57948C19.1347 6.24781 18.5372 6.78158 17.8003 6.78158C17.0584 6.78158 16.4659 6.24333 16.4659 5.57948C16.4659 4.91564 17.0633 4.37738 17.8003 4.37738C18.5372 4.37738 19.1347 4.91564 19.1347 5.57948ZM22.9237 6.79952C22.8391 5.18925 22.4308 3.76288 21.1213 2.58769C19.8168 1.4125 18.2334 1.04469 16.4459 0.963956C14.6037 0.869762 9.08185 0.869762 7.23958 0.963956C5.45706 1.04021 3.87371 1.40802 2.56421 2.5832C1.2547 3.75839 0.851394 5.18476 0.76177 6.79504C0.657209 8.45465 0.657209 13.429 0.76177 15.0886C0.846415 16.6989 1.2547 18.1253 2.56421 19.3005C3.87371 20.4757 5.45208 20.8435 7.23958 20.9242C9.08185 21.0184 14.6037 21.0184 16.4459 20.9242C18.2334 20.8479 19.8168 20.4801 21.1213 19.3005C22.4258 18.1253 22.8341 16.6989 22.9237 15.0886C23.0283 13.429 23.0283 8.45914 22.9237 6.79952ZM20.5437 16.8694C20.1554 17.7485 19.4035 18.4258 18.4226 18.7802C16.9538 19.305 13.4684 19.1838 11.8453 19.1838C10.2221 19.1838 6.73171 19.3005 5.26786 18.7802C4.29195 18.4303 3.54011 17.753 3.14676 16.8694C2.56421 15.5461 2.69864 12.4063 2.69864 10.9441C2.69864 9.48182 2.56918 6.33752 3.14676 5.0188C3.53513 4.13965 4.28697 3.46235 5.26786 3.108C6.73669 2.5832 10.2221 2.70431 11.8453 2.70431C13.4684 2.70431 16.9588 2.58769 18.4226 3.108C19.3985 3.45787 20.1504 4.13517 20.5437 5.0188C21.1263 6.34201 20.9919 9.48182 20.9919 10.9441C20.9919 12.4063 21.1263 15.5506 20.5437 16.8694Z" fill="black"/>
</svg>
