<svg width="23" height="21" viewBox="0 0 23 21" fill="none" xmlns="http://www.w3.org/2000/svg">
<path d="M22.7783 10.9441C22.7783 16.4963 17.7836 20.9948 11.6189 20.9948C10.4669 20.9948 9.36 20.8368 8.31606 20.545C8.77053 19.8763 9.45 18.7821 9.70198 17.9107C9.83698 17.4406 10.3949 15.5196 10.3949 15.5196C10.7594 16.1437 11.8214 16.6746 12.9508 16.6746C16.3166 16.6746 18.742 13.8864 18.742 10.4213C18.742 7.10209 15.7317 4.61777 11.8619 4.61777C7.04712 4.61777 4.48676 7.52763 4.48676 10.7009C4.48676 12.1761 5.35971 14.012 6.75014 14.5956C6.96163 14.6847 7.07412 14.6442 7.12362 14.4618C7.15962 14.3241 7.34861 13.6391 7.4341 13.323C7.4611 13.2217 7.4476 13.1326 7.35761 13.0353C6.90313 12.5287 6.53415 11.6047 6.53415 10.7414C6.53415 8.5246 8.39705 6.38071 11.5739 6.38071C14.3142 6.38071 16.2356 8.06259 16.2356 10.4699C16.2356 13.1893 14.7102 15.0738 12.7258 15.0738C11.6324 15.0738 10.8089 14.2592 11.0744 13.2582C11.3894 12.0626 11.9969 10.7739 11.9969 9.91063C11.9969 9.14061 11.5379 8.49623 10.5839 8.49623C9.4635 8.49623 8.56354 9.53778 8.56354 10.936C8.56354 11.8276 8.89653 12.4274 8.89653 12.4274C8.89653 12.4274 7.79409 16.6341 7.5916 17.4203C7.36661 18.2876 7.4566 19.5115 7.5511 20.3059C3.40232 18.8428 0.459473 15.2035 0.459473 10.9441C0.459473 5.39184 5.45421 0.893311 11.6189 0.893311C17.7836 0.893311 22.7783 5.39184 22.7783 10.9441Z" fill="black"/>
</svg>
