<svg width="23" height="21" viewBox="0 0 23 21" fill="none" xmlns="http://www.w3.org/2000/svg">
<path d="M22.5461 10.348C22.5461 15.9759 17.5475 20.5358 11.378 20.5358C10.2252 20.5358 9.1174 20.3756 8.07265 20.0798C8.52748 19.402 9.20747 18.2928 9.45965 17.4096C9.59475 16.9331 10.1532 14.9859 10.1532 14.9859C10.5179 15.6185 11.5807 16.1567 12.711 16.1567C16.0794 16.1567 18.5067 13.3304 18.5067 9.81805C18.5067 6.4536 15.494 3.9354 11.6212 3.9354C6.80273 3.9354 4.24038 6.88494 4.24038 10.1015C4.24038 11.5968 5.11401 13.4577 6.50551 14.0493C6.71717 14.1397 6.82975 14.0986 6.87928 13.9137C6.91531 13.774 7.10445 13.0798 7.19001 12.7594C7.21703 12.6567 7.20352 12.5663 7.11345 12.4677C6.65862 11.9542 6.28936 11.0176 6.28936 10.1426C6.28936 7.89551 8.15371 5.72238 11.333 5.72238C14.0755 5.72238 15.9984 7.4272 15.9984 9.86734C15.9984 12.6238 14.4718 14.534 12.4858 14.534C11.3915 14.534 10.5675 13.7083 10.8331 12.6936C11.1484 11.4818 11.7563 10.1754 11.7563 9.30044C11.7563 8.51992 11.297 7.86675 10.3423 7.86675C9.22098 7.86675 8.32033 8.92251 8.32033 10.3398C8.32033 11.2435 8.65357 11.8515 8.65357 11.8515C8.65357 11.8515 7.55027 16.1156 7.34762 16.9126C7.12246 17.7917 7.21253 19.0323 7.30709 19.8374C3.15509 18.3545 0.209961 14.6655 0.209961 10.348C0.209961 4.72003 5.20858 0.160156 11.378 0.160156C17.5475 0.160156 22.5461 4.72003 22.5461 10.348Z" fill="black"/>
</svg>
